<svg xmlns="http://www.w3.org/2000/svg" viewBox="0 0 1024 1024">
  <rect width="1024" height="1024" fill="#F7F1E8"/>
  <g transform="translate(287, 260) scale(4.5)">
    <ellipse cx="48" cy="106" rx="28" ry="3.4" fill="#3E3A5E" opacity="0.10"/>
    <ellipse cx="48" cy="106" rx="37.800000000000004" ry="4.6" fill="#3E3A5E" opacity="0.06"/>
    <path d="M 24 62 L 68 62 L 68 102 L 24 102 Z M 24 54 L 68 54 L 68 62 L 24 62 Z M 68 54 L 68 94 L 68 102 L 68 62 Z M 68 102 L 24 102 L 24 94 L 68 94 Z M 24 94 L 24 54 L 24 62 L 24 102 Z" fill="#589091" stroke="#589091" stroke-width="0.5"/>
    <path d="M 24 28 L 58 28 L 58 62 L 24 62 Z M 24 20 L 58 20 L 58 28 L 24 28 Z M 58 20 L 58 54 L 58 62 L 58 28 Z M 58 62 L 24 62 L 24 54 L 58 54 Z M 24 54 L 24 20 L 24 28 L 24 62 Z" fill="#589091" stroke="#589091" stroke-width="0.5"/>
    <path d="M 24 54 L 68 54 L 68 94 L 24 94 Z" fill="#5FA8A0"/>
    <path d="M 24 20 L 58 20 L 58 54 L 24 54 Z" fill="#5FA8A0"/>
    <path d="M 36 20 L 48 20 L 42 10 Z" fill="#E2795B"/>
    <path d="M 24 32 L 24 44 L 12 38 Z" fill="#EDB95F"/>
    <path d="M 68 76 L 84 84 L 68 92 Z" fill="#6C8FD4"/>
    <path d="M 36 94 L 44 94 L 44 102 L 36 102 Z" fill="#EDB95F"/>
    <path d="M 52 94 L 60 94 L 60 102 L 52 102 Z" fill="#EDB95F"/>
    <path d="M 34 62 L 60 62 L 50 78 L 24 78 Z" fill="#6C8FD4"/>
    <circle cx="34" cy="34" r="3" fill="#3E3A5E"/>
    <circle cx="35.05" cy="33.1" r="0.8999999999999999" fill="#FFFDF9"/>
    <circle cx="48" cy="34" r="3" fill="#3E3A5E"/>
    <circle cx="49.05" cy="33.1" r="0.8999999999999999" fill="#FFFDF9"/>
    <circle cx="30" cy="44" r="3.2" fill="#D98BA3" opacity="0.85"/>
    <circle cx="52" cy="44" r="3.2" fill="#D98BA3" opacity="0.85"/>
  </g>
</svg>